<svg width="1178" height="25" viewBox="0 0 1178 25" fill="none" xmlns="http://www.w3.org/2000/svg">
<path d="M9.00943 13.6251L9.50902 10.3676H6.38326V8.25323C6.38326 7.3619 6.81978 6.49347 8.21986 6.49347H9.64077V3.71978C9.64077 3.71978 8.3516 3.5 7.1184 3.5C4.54363 3.5 2.86171 5.05982 2.86171 7.88439V10.3676H0V13.6251H2.86171V21.5H6.38326V13.6251H9.00943Z" fill="white"/>
<path d="M43.4058 6.71362C42.8228 6.71362 42.3502 7.18624 42.3502 7.76874C42.3502 8.35175 42.8228 8.82436 43.4058 8.82436C43.9883 8.82436 44.4609 8.35175 44.4609 7.76874C44.4609 7.18624 43.9883 6.71362 43.4058 6.71362Z" fill="white"/>
<path d="M38.714 15.3392C37.1482 15.3392 35.8743 14.0654 35.8743 12.5C35.8743 10.9341 37.1482 9.66025 38.714 9.66025C40.2794 9.66025 41.5533 10.9341 41.5533 12.5C41.5533 14.0654 40.2794 15.3392 38.714 15.3392ZM38.714 8.06689C36.2696 8.06689 34.2809 10.0555 34.2809 12.5C34.2809 14.9439 36.2696 16.9326 38.714 16.9326C41.158 16.9326 43.1466 14.9439 43.1466 12.5C43.1466 10.0555 41.158 8.06689 38.714 8.06689Z" fill="white"/>
<path d="M35.0471 5.19357C32.9994 5.19357 31.3338 6.85917 31.3338 8.90682V16.0932C31.3338 18.1408 32.9994 19.8064 35.0471 19.8064H42.2334C44.2811 19.8064 45.9472 18.1408 45.9472 16.0932V8.90682C45.9472 6.85917 44.2811 5.19357 42.2334 5.19357H35.0471ZM42.2334 21.5H35.0471C32.0654 21.5 29.6407 19.0744 29.6407 16.0932V8.90682C29.6407 5.92513 32.0654 3.5 35.0471 3.5H42.2334C45.2146 3.5 47.6402 5.92513 47.6402 8.90682V16.0932C47.6402 19.0744 45.2146 21.5 42.2334 21.5Z" fill="white"/>
<path d="M89.4202 5.65762C88.7253 5.97202 87.9576 6.16229 87.2082 6.28795C87.5638 6.22842 88.0863 5.58436 88.2959 5.32389C88.6154 4.92707 88.8804 4.47428 89.0295 3.98538C89.0488 3.94723 89.0636 3.8994 89.0249 3.87041C88.9771 3.85158 88.9461 3.86126 88.9079 3.88008C88.071 4.32828 87.2062 4.65336 86.2854 4.88382C86.2091 4.90265 86.1521 4.88382 86.1042 4.83549C86.0284 4.74951 85.9562 4.66812 85.8753 4.60147C85.4882 4.27232 85.073 4.01387 84.605 3.82309C83.9904 3.57279 83.3189 3.46647 82.657 3.5092C82.0124 3.55143 81.3801 3.73254 80.8088 4.03117C80.2359 4.33031 79.7246 4.74697 79.3171 5.2491C78.8964 5.76903 78.5861 6.38207 78.4268 7.03275C78.2742 7.66053 78.2864 8.2812 78.38 8.9156C78.3943 9.02091 78.3846 9.03515 78.2895 9.02091C74.6881 8.4847 71.7028 7.19656 69.2791 4.43461C69.1738 4.31454 69.1169 4.31454 69.0309 4.44376C67.9701 6.03357 68.4845 8.58695 69.8092 9.84202C69.9863 10.0099 70.1674 10.1768 70.3633 10.3294C70.2915 10.3441 69.4104 10.249 68.6244 9.84202C68.5196 9.77537 68.4662 9.81404 68.457 9.93308C68.4474 10.105 68.4621 10.2633 68.4855 10.4495C68.689 12.0606 69.8052 13.5507 71.3334 14.1327C71.5146 14.2091 71.7155 14.2757 71.9109 14.3093C71.5629 14.3856 71.2042 14.44 70.2056 14.3617C70.0814 14.3383 70.0341 14.4003 70.0814 14.5199C70.8323 16.5645 72.4511 17.1735 73.6645 17.5199C73.8268 17.5484 73.9896 17.5484 74.1524 17.5866C74.1422 17.6013 74.1325 17.6013 74.1229 17.6156C73.7209 18.2286 72.326 18.685 71.6763 18.9119C70.495 19.325 69.2084 19.5107 67.96 19.3875C67.7606 19.358 67.7183 19.3606 67.6644 19.3875C67.6095 19.4216 67.6568 19.4694 67.7214 19.5213C67.9747 19.6887 68.2327 19.8368 68.4957 19.9802C69.2883 20.4004 70.115 20.7352 70.9799 20.9738C75.4441 22.2065 80.4725 21.3004 83.8246 17.9702C86.4568 15.3547 87.3797 11.7478 87.3797 8.13671C87.3797 7.99528 87.5465 7.91744 87.6452 7.84266C88.3305 7.32832 88.883 6.71224 89.3938 6.02493C89.5087 5.87027 89.5097 5.73291 89.5097 5.67644C89.5097 5.66677 89.5097 5.65762 89.5097 5.65762C89.5097 5.59962 89.5087 5.61743 89.4202 5.65762Z" fill="white"/>
<path fill-rule="evenodd" clip-rule="evenodd" d="M115.338 15.2417C115.323 15.2936 115.309 15.3368 115.298 15.3806C114.636 17.9706 114.563 18.546 113.884 19.7497C113.559 20.321 113.194 20.8628 112.791 21.3817C112.745 21.4402 112.703 21.5155 112.611 21.4972C112.512 21.4758 112.504 21.3863 112.493 21.3064C112.384 20.5194 112.325 19.7298 112.35 18.9357C112.385 17.9004 112.513 17.5453 113.847 11.9328C113.867 11.8474 113.845 11.7767 113.817 11.6988C113.497 10.8375 113.434 9.96299 113.713 9.07676C114.317 7.16236 116.487 7.01584 116.867 8.59549C117.1 9.57227 116.482 10.8502 116.007 12.7397C115.614 14.299 117.449 15.407 119.018 14.269C120.464 13.22 121.026 10.7042 120.919 8.92159C120.709 5.36752 116.812 4.59932 114.338 5.74399C111.504 7.05451 110.859 10.5684 112.139 12.174C112.301 12.3785 112.426 12.5031 112.373 12.7107C112.29 13.0317 112.218 13.3558 112.129 13.6758C112.063 13.9134 111.864 14.0004 111.623 13.9022C111.151 13.7114 110.758 13.4112 110.439 13.0154C109.352 11.6698 109.042 9.00706 110.478 6.75384C112.071 4.25642 115.033 3.24657 117.736 3.55334C120.966 3.92014 123.007 6.12707 123.389 8.63008C123.563 9.77069 123.438 12.5825 121.838 14.5702C119.995 16.8539 117.01 17.005 115.633 15.6034C115.527 15.4961 115.442 15.3699 115.338 15.2417Z" fill="white"/>
<path d="M158.849 10.7829C158.702 10.7969 158.554 10.8043 158.406 10.8053C156.785 10.8053 155.274 9.98832 154.386 8.6321V16.0312C154.386 19.0519 151.937 21.5 148.917 21.5C145.896 21.5 143.448 19.0519 143.448 16.0312C143.448 13.011 145.896 10.5629 148.917 10.5629C149.031 10.5629 149.143 10.5729 149.255 10.5799V13.2749C149.143 13.2614 149.032 13.241 148.917 13.241C147.375 13.241 146.126 14.4909 146.126 16.0317C146.126 17.5735 147.375 18.823 148.917 18.823C150.459 18.823 151.82 17.6084 151.82 16.0666L151.848 3.5H154.426C154.669 5.81191 156.533 7.61805 158.852 7.78764V10.7829" fill="white"/>
<path d="M183.932 18.3997L184.237 18.5813C185.355 19.2478 186.628 19.6003 187.917 19.6003C191.893 19.6003 195.127 16.3662 195.127 12.3904C195.127 8.41501 191.893 5.1804 187.917 5.1804C183.942 5.1804 180.707 8.41501 180.707 12.3904C180.707 13.7029 181.072 14.9957 181.762 16.1286L181.949 16.4354L181.228 19.1241L183.932 18.3997ZM178.852 21.5L180.142 16.6857C179.411 15.367 179.027 13.8902 179.027 12.3904C179.027 7.48858 183.015 3.5 187.917 3.5C192.819 3.5 196.808 7.48858 196.808 12.3904C196.808 17.2927 192.819 21.2812 187.917 21.2812C186.446 21.2812 184.992 20.9093 183.691 20.2042L178.852 21.5Z" fill="white"/>
<path fill-rule="evenodd" clip-rule="evenodd" d="M191.224 13.6271C190.858 13.4079 190.382 13.1637 189.951 13.3397C189.621 13.4755 189.409 13.9934 189.195 14.2575C189.085 14.3933 188.954 14.4142 188.785 14.3465C187.543 13.8515 186.592 13.0228 185.907 11.8811C185.791 11.7036 185.812 11.5637 185.951 11.3993C186.159 11.1557 186.418 10.8789 186.474 10.5502C186.53 10.2221 186.376 9.8385 186.24 9.54546C186.067 9.17204 185.873 8.63939 185.499 8.42775C185.155 8.23341 184.701 8.34227 184.395 8.59156C183.866 9.02298 183.611 9.69759 183.618 10.3671C183.621 10.5574 183.644 10.7471 183.689 10.9303C183.795 11.3714 183.999 11.784 184.229 12.1752C184.402 12.4708 184.59 12.7577 184.793 13.0334C185.457 13.9355 186.283 14.7194 187.24 15.3055C187.718 15.598 188.232 15.855 188.765 16.031C189.363 16.2284 189.896 16.4339 190.541 16.3113C191.217 16.1831 191.884 15.7649 192.152 15.1137C192.231 14.9204 192.271 14.7057 192.227 14.5022C192.135 14.0809 191.565 13.8306 191.224 13.6271Z" fill="white"/>
<path d="M234.037 13.0035L227.566 16.205C227.312 16.3416 226.45 16.1578 226.45 15.8695V9.29853C226.45 9.00671 227.319 8.8229 227.573 8.96738L233.767 12.3369C234.027 12.485 234.299 12.8612 234.037 13.0035ZM242.522 9.14262C242.522 6.02627 239.996 3.5 236.879 3.5H222.45C219.333 3.5 216.808 6.02627 216.808 9.14262V15.8574C216.808 18.9744 219.333 21.5 222.45 21.5H236.879C239.996 21.5 242.522 18.9744 242.522 15.8574V9.14262Z" fill="white"/>
<path d="M860.555 19.2C859.195 19.2 858.002 18.9 856.975 18.3C855.949 17.7 855.149 16.8867 854.575 15.86C854.002 14.8333 853.715 13.68 853.715 12.4C853.715 11.1067 854.002 9.95333 854.575 8.94C855.149 7.91333 855.949 7.1 856.975 6.5C858.002 5.9 859.195 5.6 860.555 5.6C861.915 5.6 863.109 5.9 864.135 6.5C865.162 7.1 865.962 7.91333 866.535 8.94C867.109 9.95333 867.395 11.1067 867.395 12.4C867.395 13.68 867.109 14.8333 866.535 15.86C865.962 16.8867 865.162 17.7 864.135 18.3C863.109 18.9 861.915 19.2 860.555 19.2ZM860.555 17.9C861.635 17.9 862.582 17.66 863.395 17.18C864.209 16.6867 864.842 16.0267 865.295 15.2C865.749 14.36 865.975 13.4267 865.975 12.4C865.975 11.3733 865.749 10.4467 865.295 9.62C864.842 8.78 864.209 8.12 863.395 7.64C862.582 7.14667 861.635 6.9 860.555 6.9C859.489 6.9 858.542 7.14667 857.715 7.64C856.902 8.12 856.269 8.78 855.815 9.62C855.362 10.4467 855.135 11.3733 855.135 12.4C855.135 13.4267 855.362 14.36 855.815 15.2C856.269 16.0267 856.902 16.6867 857.715 17.18C858.542 17.66 859.489 17.9 860.555 17.9ZM860.695 16.14C859.562 16.14 858.669 15.8133 858.015 15.16C857.375 14.4933 857.055 13.5867 857.055 12.44C857.055 11.2933 857.375 10.3933 858.015 9.74C858.669 9.07333 859.562 8.74 860.695 8.74C861.482 8.74 862.135 8.91333 862.655 9.26C863.175 9.59333 863.562 10.0533 863.815 10.64L862.655 11.22C862.482 10.7933 862.235 10.4733 861.915 10.26C861.595 10.0467 861.182 9.94 860.675 9.94C859.969 9.94 859.409 10.16 858.995 10.6C858.595 11.04 858.395 11.6533 858.395 12.44C858.395 13.2267 858.595 13.84 858.995 14.28C859.409 14.72 859.969 14.94 860.675 14.94C861.209 14.94 861.649 14.8333 861.995 14.62C862.355 14.3933 862.622 14.0533 862.795 13.6L863.895 14.04C863.642 14.6933 863.249 15.2067 862.715 15.58C862.182 15.9533 861.509 16.14 860.695 16.14ZM881.978 5.6C883.138 5.6 884.138 5.84 884.978 6.32C885.818 6.78667 886.518 7.48 887.078 8.4L885.738 9.44C885.245 8.58667 884.685 7.98667 884.058 7.64C883.445 7.28 882.698 7.1 881.818 7.1C881.111 7.1 880.525 7.2 880.058 7.4C879.605 7.6 879.271 7.86667 879.058 8.2C878.845 8.52 878.738 8.88667 878.738 9.3C878.738 9.76667 878.885 10.18 879.178 10.54C879.471 10.8867 880.058 11.16 880.938 11.36L883.798 12C885.065 12.28 885.945 12.7067 886.438 13.28C886.945 13.84 887.198 14.54 887.198 15.38C887.198 16.1267 886.985 16.7933 886.558 17.38C886.145 17.9533 885.558 18.4 884.798 18.72C884.038 19.04 883.145 19.2 882.118 19.2C881.158 19.2 880.311 19.0733 879.578 18.82C878.858 18.5533 878.238 18.2 877.718 17.76C877.198 17.32 876.771 16.8267 876.438 16.28L877.838 15.14C878.091 15.6467 878.418 16.0933 878.818 16.48C879.218 16.8667 879.698 17.1667 880.258 17.38C880.831 17.5933 881.485 17.7 882.218 17.7C882.898 17.7 883.485 17.62 883.978 17.46C884.485 17.2867 884.871 17.04 885.138 16.72C885.405 16.3867 885.538 15.9867 885.538 15.52C885.538 15.0933 885.398 14.7133 885.118 14.38C884.838 14.0333 884.311 13.7733 883.538 13.6L880.438 12.9C879.625 12.7133 878.965 12.46 878.458 12.14C877.965 11.8067 877.605 11.42 877.378 10.98C877.165 10.5267 877.058 10.04 877.058 9.52C877.058 8.81333 877.251 8.16667 877.638 7.58C878.038 6.98 878.605 6.5 879.338 6.14C880.085 5.78 880.965 5.6 881.978 5.6ZM892.611 6.16V16.24C892.611 16.7333 892.751 17.1 893.031 17.34C893.311 17.58 893.671 17.7 894.111 17.7C894.497 17.7 894.831 17.6333 895.111 17.5C895.391 17.3667 895.644 17.1867 895.871 16.96L896.431 18.3C896.124 18.58 895.757 18.8 895.331 18.96C894.917 19.12 894.437 19.2 893.891 19.2C893.384 19.2 892.911 19.1133 892.471 18.94C892.031 18.7533 891.677 18.4667 891.411 18.08C891.157 17.68 891.024 17.16 891.011 16.52V6.6L892.611 6.16ZM896.251 9V10.38H889.011V9H896.251ZM904.47 12.54C904.47 11.7933 904.27 11.22 903.87 10.82C903.47 10.4067 902.903 10.2 902.17 10.2C901.476 10.2 900.89 10.3533 900.41 10.66C899.93 10.9533 899.576 11.4333 899.35 12.1L898.05 11.3C898.316 10.5533 898.81 9.95333 899.53 9.5C900.25 9.03333 901.143 8.8 902.21 8.8C902.93 8.8 903.583 8.92667 904.17 9.18C904.756 9.42 905.216 9.79333 905.55 10.3C905.896 10.7933 906.07 11.4333 906.07 12.22V17.06C906.07 17.54 906.323 17.78 906.83 17.78C907.083 17.78 907.33 17.7467 907.57 17.68L907.49 18.94C907.223 19.0733 906.876 19.14 906.45 19.14C906.063 19.14 905.716 19.0667 905.41 18.92C905.103 18.7733 904.863 18.5533 904.69 18.26C904.516 17.9533 904.43 17.5733 904.43 17.12V16.92L904.83 16.98C904.67 17.5 904.396 17.9267 904.01 18.26C903.623 18.58 903.19 18.82 902.71 18.98C902.23 19.1267 901.756 19.2 901.29 19.2C900.703 19.2 900.156 19.1 899.65 18.9C899.143 18.7 898.736 18.4 898.43 18C898.136 17.5867 897.99 17.08 897.99 16.48C897.99 15.7333 898.236 15.12 898.73 14.64C899.236 14.1467 899.936 13.8133 900.83 13.64L904.79 12.86V14.18L901.57 14.84C900.916 14.9733 900.43 15.16 900.11 15.4C899.79 15.64 899.63 15.9733 899.63 16.4C899.63 16.8133 899.79 17.1533 900.11 17.42C900.443 17.6733 900.91 17.8 901.51 17.8C901.896 17.8 902.263 17.7533 902.61 17.66C902.97 17.5533 903.29 17.4 903.57 17.2C903.85 16.9867 904.07 16.7267 904.23 16.42C904.39 16.1 904.47 15.7267 904.47 15.3V12.54ZM909.958 19V9H911.258L911.478 10.64C911.758 10.0267 912.164 9.56667 912.698 9.26C913.244 8.95333 913.904 8.8 914.678 8.8C914.851 8.8 915.038 8.81333 915.238 8.84C915.451 8.86667 915.631 8.92 915.778 9L915.498 10.46C915.351 10.4067 915.191 10.3667 915.018 10.34C914.844 10.3133 914.598 10.3 914.278 10.3C913.864 10.3 913.444 10.42 913.018 10.66C912.604 10.9 912.258 11.2667 911.978 11.76C911.698 12.24 911.558 12.8533 911.558 13.6V19H909.958ZM919.876 6.16V16.24C919.876 16.7333 920.016 17.1 920.296 17.34C920.576 17.58 920.936 17.7 921.376 17.7C921.763 17.7 922.096 17.6333 922.376 17.5C922.656 17.3667 922.91 17.1867 923.136 16.96L923.696 18.3C923.39 18.58 923.023 18.8 922.596 18.96C922.183 19.12 921.703 19.2 921.156 19.2C920.65 19.2 920.176 19.1133 919.736 18.94C919.296 18.7533 918.943 18.4667 918.676 18.08C918.423 17.68 918.29 17.16 918.276 16.52V6.6L919.876 6.16ZM923.516 9V10.38H916.276V9H923.516ZM926.695 16.6C927.015 16.6 927.282 16.6867 927.495 16.86C927.722 17.02 927.895 17.2467 928.015 17.54C928.135 17.82 928.195 18.1533 928.195 18.54C928.195 18.98 928.115 19.4133 927.955 19.84C927.808 20.2667 927.575 20.66 927.255 21.02C926.935 21.38 926.522 21.68 926.015 21.92L925.175 21.14C925.535 21.02 925.848 20.8533 926.115 20.64C926.395 20.4267 926.622 20.1867 926.795 19.92C926.968 19.6533 927.082 19.38 927.135 19.1L927.055 19.06C927.002 19.1 926.935 19.1333 926.855 19.16C926.775 19.1867 926.655 19.2 926.495 19.2C926.335 19.2 926.168 19.1533 925.995 19.06C925.835 18.9667 925.695 18.8333 925.575 18.66C925.455 18.4733 925.395 18.2333 925.395 17.94C925.395 17.7 925.455 17.48 925.575 17.28C925.695 17.0667 925.848 16.9 926.035 16.78C926.235 16.66 926.455 16.6 926.695 16.6ZM937.644 19V17.7C938.964 16.7267 940.064 15.8733 940.944 15.14C941.837 14.4067 942.551 13.74 943.084 13.14C943.617 12.54 943.997 11.9733 944.224 11.44C944.451 10.8933 944.564 10.3267 944.564 9.74C944.564 8.95333 944.311 8.32 943.804 7.84C943.311 7.34667 942.631 7.1 941.764 7.1C940.857 7.1 940.131 7.4 939.584 8C939.037 8.58667 938.717 9.37333 938.624 10.36L937.224 9.52C937.344 8.74667 937.591 8.06667 937.964 7.48C938.351 6.89333 938.864 6.43333 939.504 6.1C940.157 5.76667 940.931 5.6 941.824 5.6C942.504 5.6 943.111 5.7 943.644 5.9C944.191 6.1 944.657 6.38667 945.044 6.76C945.431 7.12 945.724 7.55333 945.924 8.06C946.137 8.56667 946.244 9.12667 946.244 9.74C946.244 10.5667 946.044 11.38 945.644 12.18C945.244 12.9667 944.584 13.7933 943.664 14.66C942.744 15.5267 941.497 16.4867 939.924 17.54V17.56C940.071 17.5467 940.271 17.54 940.524 17.54C940.791 17.5267 941.051 17.52 941.304 17.52C941.571 17.5067 941.771 17.5 941.904 17.5H946.524V19H937.644ZM954.044 19.2C952.551 19.2 951.358 18.62 950.464 17.46C949.571 16.3 949.124 14.6133 949.124 12.4C949.124 10.1867 949.571 8.5 950.464 7.34C951.358 6.18 952.551 5.6 954.044 5.6C955.551 5.6 956.744 6.18 957.624 7.34C958.518 8.5 958.964 10.1867 958.964 12.4C958.964 14.6133 958.518 16.3 957.624 17.46C956.744 18.62 955.551 19.2 954.044 19.2ZM954.044 17.76C954.751 17.76 955.344 17.56 955.824 17.16C956.318 16.7467 956.684 16.14 956.924 15.34C957.178 14.54 957.304 13.56 957.304 12.4C957.304 11.24 957.178 10.26 956.924 9.46C956.684 8.66 956.318 8.06 955.824 7.66C955.344 7.24667 954.751 7.04 954.044 7.04C953.338 7.04 952.738 7.24667 952.244 7.66C951.764 8.06 951.398 8.66 951.144 9.46C950.904 10.26 950.784 11.24 950.784 12.4C950.784 13.56 950.904 14.54 951.144 15.34C951.398 16.14 951.764 16.7467 952.244 17.16C952.738 17.56 953.338 17.76 954.044 17.76ZM961.746 19V17.7C963.066 16.7267 964.166 15.8733 965.046 15.14C965.939 14.4067 966.652 13.74 967.186 13.14C967.719 12.54 968.099 11.9733 968.326 11.44C968.552 10.8933 968.666 10.3267 968.666 9.74C968.666 8.95333 968.412 8.32 967.906 7.84C967.412 7.34667 966.732 7.1 965.866 7.1C964.959 7.1 964.232 7.4 963.686 8C963.139 8.58667 962.819 9.37333 962.726 10.36L961.326 9.52C961.446 8.74667 961.692 8.06667 962.066 7.48C962.452 6.89333 962.966 6.43333 963.606 6.1C964.259 5.76667 965.032 5.6 965.926 5.6C966.606 5.6 967.212 5.7 967.746 5.9C968.292 6.1 968.759 6.38667 969.146 6.76C969.532 7.12 969.826 7.55333 970.026 8.06C970.239 8.56667 970.346 9.12667 970.346 9.74C970.346 10.5667 970.146 11.38 969.746 12.18C969.346 12.9667 968.686 13.7933 967.766 14.66C966.846 15.5267 965.599 16.4867 964.026 17.54V17.56C964.172 17.5467 964.372 17.54 964.626 17.54C964.892 17.5267 965.152 17.52 965.406 17.52C965.672 17.5067 965.872 17.5 966.006 17.5H970.626V19H961.746ZM973.406 19V17.7C974.726 16.7267 975.826 15.8733 976.706 15.14C977.599 14.4067 978.312 13.74 978.846 13.14C979.379 12.54 979.759 11.9733 979.986 11.44C980.212 10.8933 980.326 10.3267 980.326 9.74C980.326 8.95333 980.072 8.32 979.566 7.84C979.072 7.34667 978.392 7.1 977.526 7.1C976.619 7.1 975.892 7.4 975.346 8C974.799 8.58667 974.479 9.37333 974.386 10.36L972.986 9.52C973.106 8.74667 973.352 8.06667 973.726 7.48C974.112 6.89333 974.626 6.43333 975.266 6.1C975.919 5.76667 976.692 5.6 977.586 5.6C978.266 5.6 978.872 5.7 979.406 5.9C979.952 6.1 980.419 6.38667 980.806 6.76C981.192 7.12 981.486 7.55333 981.686 8.06C981.899 8.56667 982.006 9.12667 982.006 9.74C982.006 10.5667 981.806 11.38 981.406 12.18C981.006 12.9667 980.346 13.7933 979.426 14.66C978.506 15.5267 977.259 16.4867 975.686 17.54V17.56C975.832 17.5467 976.032 17.54 976.286 17.54C976.552 17.5267 976.812 17.52 977.066 17.52C977.332 17.5067 977.532 17.5 977.666 17.5H982.286V19H973.406ZM986.246 16.6C986.633 16.6 986.946 16.72 987.186 16.96C987.426 17.2 987.546 17.5133 987.546 17.9C987.546 18.2867 987.426 18.6 987.186 18.84C986.946 19.08 986.633 19.2 986.246 19.2C985.859 19.2 985.546 19.08 985.306 18.84C985.066 18.6 984.946 18.2867 984.946 17.9C984.946 17.5133 985.066 17.2 985.306 16.96C985.546 16.72 985.859 16.6 986.246 16.6ZM1007.59 19H1005.89L1004.49 15.34H998.514L997.114 19H995.434L1000.57 5.8H1002.47L1007.59 19ZM999.094 13.84H1003.91L1001.49 7.34L999.094 13.84ZM1011.5 4.4V16.46C1011.5 16.9667 1011.59 17.32 1011.78 17.52C1011.96 17.7067 1012.26 17.8 1012.68 17.8C1012.94 17.8 1013.16 17.78 1013.34 17.74C1013.51 17.7 1013.74 17.6267 1014.04 17.52L1013.78 18.92C1013.56 19.0133 1013.33 19.08 1013.08 19.12C1012.82 19.1733 1012.56 19.2 1012.3 19.2C1011.48 19.2 1010.88 18.98 1010.48 18.54C1010.09 18.1 1009.9 17.4267 1009.9 16.52V4.4H1011.5ZM1017.61 4.4V16.46C1017.61 16.9667 1017.7 17.32 1017.89 17.52C1018.08 17.7067 1018.38 17.8 1018.79 17.8C1019.06 17.8 1019.28 17.78 1019.45 17.74C1019.62 17.7 1019.86 17.6267 1020.15 17.52L1019.89 18.92C1019.68 19.0133 1019.44 19.08 1019.19 19.12C1018.94 19.1733 1018.68 19.2 1018.41 19.2C1017.6 19.2 1016.99 18.98 1016.59 18.54C1016.2 18.1 1016.01 17.4267 1016.01 16.52V4.4H1017.61ZM1028.32 19V9H1029.62L1029.84 10.64C1030.12 10.0267 1030.52 9.56667 1031.06 9.26C1031.6 8.95333 1032.26 8.8 1033.04 8.8C1033.21 8.8 1033.4 8.81333 1033.6 8.84C1033.81 8.86667 1033.99 8.92 1034.14 9L1033.86 10.46C1033.71 10.4067 1033.55 10.3667 1033.38 10.34C1033.2 10.3133 1032.96 10.3 1032.64 10.3C1032.22 10.3 1031.8 10.42 1031.38 10.66C1030.96 10.9 1030.62 11.2667 1030.34 11.76C1030.06 12.24 1029.92 12.8533 1029.92 13.6V19H1028.32ZM1037.28 7.08C1036.92 7.08 1036.63 6.97333 1036.4 6.76C1036.19 6.53333 1036.08 6.24 1036.08 5.88C1036.08 5.52 1036.19 5.23333 1036.4 5.02C1036.63 4.79333 1036.92 4.68 1037.28 4.68C1037.64 4.68 1037.93 4.79333 1038.14 5.02C1038.37 5.23333 1038.48 5.52 1038.48 5.88C1038.48 6.24 1038.37 6.53333 1038.14 6.76C1037.93 6.97333 1037.64 7.08 1037.28 7.08ZM1038.08 9V19H1036.48V9H1038.08ZM1050.21 7.16L1050.57 8.58C1050.56 8.58 1050.54 8.58 1050.51 8.58C1050.49 8.58 1050.46 8.58 1050.43 8.58C1049.78 8.58 1049.27 8.71333 1048.91 8.98C1048.57 9.23333 1048.39 9.64667 1048.39 10.22L1047.41 9.72C1047.41 9.2 1047.53 8.74667 1047.77 8.36C1048.01 7.97333 1048.34 7.68 1048.75 7.48C1049.17 7.26667 1049.62 7.16 1050.11 7.16C1050.13 7.16 1050.14 7.16 1050.15 7.16C1050.18 7.16 1050.2 7.16 1050.21 7.16ZM1047.17 17.72C1048.12 17.72 1048.86 17.94 1049.39 18.38C1049.93 18.8067 1050.19 19.38 1050.19 20.1C1050.19 20.7533 1049.97 21.32 1049.53 21.8C1049.11 22.28 1048.53 22.6467 1047.79 22.9C1047.07 23.1667 1046.26 23.3 1045.35 23.3C1043.78 23.3 1042.6 23.0333 1041.81 22.5C1041.04 21.9667 1040.65 21.3267 1040.65 20.58C1040.65 20.0467 1040.83 19.5667 1041.17 19.14C1041.53 18.7267 1042.13 18.4933 1042.97 18.44L1042.83 18.74C1042.38 18.62 1041.99 18.42 1041.67 18.14C1041.37 17.8467 1041.21 17.4267 1041.21 16.88C1041.21 16.3333 1041.41 15.8667 1041.81 15.48C1042.23 15.08 1042.83 14.8333 1043.63 14.74L1044.69 15.28H1044.49C1043.84 15.3467 1043.37 15.5133 1043.09 15.78C1042.83 16.0333 1042.69 16.3133 1042.69 16.62C1042.69 16.9933 1042.83 17.2733 1043.09 17.46C1043.37 17.6333 1043.76 17.72 1044.25 17.72H1047.17ZM1045.33 21.96C1046.11 21.96 1046.74 21.88 1047.23 21.72C1047.74 21.56 1048.11 21.3533 1048.35 21.1C1048.59 20.8467 1048.71 20.5733 1048.71 20.28C1048.71 19.92 1048.57 19.6333 1048.27 19.42C1047.99 19.2067 1047.48 19.1 1046.73 19.1H1043.65C1043.23 19.1 1042.87 19.2067 1042.57 19.42C1042.28 19.6467 1042.13 19.9533 1042.13 20.34C1042.13 20.8333 1042.41 21.2267 1042.97 21.52C1043.55 21.8133 1044.33 21.96 1045.33 21.96ZM1045.19 8.8C1045.99 8.8 1046.7 8.94667 1047.31 9.24C1047.94 9.52 1048.43 9.91333 1048.77 10.42C1049.12 10.9267 1049.29 11.5133 1049.29 12.18C1049.29 12.8333 1049.12 13.42 1048.77 13.94C1048.43 14.4467 1047.94 14.8467 1047.31 15.14C1046.7 15.42 1045.99 15.56 1045.19 15.56C1043.87 15.56 1042.86 15.2467 1042.15 14.62C1041.45 13.98 1041.09 13.1667 1041.09 12.18C1041.09 11.5133 1041.27 10.9267 1041.61 10.42C1041.97 9.91333 1042.46 9.52 1043.07 9.24C1043.69 8.94667 1044.39 8.8 1045.19 8.8ZM1045.19 10.1C1044.5 10.1 1043.92 10.2933 1043.45 10.68C1042.99 11.0533 1042.75 11.5533 1042.75 12.18C1042.75 12.7933 1042.99 13.2933 1043.45 13.68C1043.92 14.0667 1044.5 14.26 1045.19 14.26C1045.89 14.26 1046.47 14.0667 1046.93 13.68C1047.4 13.2933 1047.63 12.7933 1047.63 12.18C1047.63 11.5533 1047.4 11.0533 1046.93 10.68C1046.47 10.2933 1045.89 10.1 1045.19 10.1ZM1052.44 19V4.4H1054.04V10.5C1054.38 9.9 1054.84 9.46667 1055.42 9.2C1055.99 8.93333 1056.62 8.8 1057.3 8.8C1058.02 8.8 1058.67 8.94 1059.26 9.22C1059.84 9.48667 1060.31 9.9 1060.66 10.46C1061.02 11.02 1061.2 11.7333 1061.2 12.6V19H1059.6V13.16C1059.6 12.0533 1059.36 11.2867 1058.88 10.86C1058.41 10.42 1057.83 10.2 1057.14 10.2C1056.66 10.2 1056.18 10.3133 1055.7 10.54C1055.22 10.7667 1054.82 11.14 1054.5 11.66C1054.19 12.1667 1054.04 12.8467 1054.04 13.7V19H1052.44ZM1067.04 6.16V16.24C1067.04 16.7333 1067.18 17.1 1067.46 17.34C1067.74 17.58 1068.1 17.7 1068.54 17.7C1068.93 17.7 1069.26 17.6333 1069.54 17.5C1069.82 17.3667 1070.08 17.1867 1070.3 16.96L1070.86 18.3C1070.56 18.58 1070.19 18.8 1069.76 18.96C1069.35 19.12 1068.87 19.2 1068.32 19.2C1067.82 19.2 1067.34 19.1133 1066.9 18.94C1066.46 18.7533 1066.11 18.4667 1065.84 18.08C1065.59 17.68 1065.46 17.16 1065.44 16.52V6.6L1067.04 6.16ZM1070.68 9V10.38H1063.44V9H1070.68ZM1076.66 19.2C1075.69 19.2 1074.79 18.9933 1073.96 18.58C1073.15 18.1667 1072.52 17.58 1072.08 16.82L1073.44 15.84C1073.74 16.4533 1074.16 16.9333 1074.72 17.28C1075.3 17.6267 1075.98 17.8 1076.78 17.8C1077.49 17.8 1078.04 17.6667 1078.44 17.4C1078.84 17.12 1079.04 16.76 1079.04 16.32C1079.04 16.04 1078.95 15.7867 1078.76 15.56C1078.59 15.32 1078.25 15.1467 1077.74 15.04L1075.34 14.54C1074.37 14.34 1073.67 14.0067 1073.24 13.54C1072.83 13.0733 1072.62 12.4933 1072.62 11.8C1072.62 11.2533 1072.78 10.7533 1073.08 10.3C1073.4 9.84667 1073.85 9.48667 1074.42 9.22C1075.01 8.94 1075.7 8.8 1076.48 8.8C1077.47 8.8 1078.3 8.99333 1078.98 9.38C1079.66 9.76667 1080.17 10.3133 1080.5 11.02L1079.16 11.9C1078.94 11.3133 1078.57 10.8867 1078.06 10.62C1077.56 10.34 1077.03 10.2 1076.48 10.2C1076 10.2 1075.59 10.2667 1075.24 10.4C1074.91 10.5333 1074.65 10.72 1074.46 10.96C1074.29 11.1867 1074.2 11.4467 1074.2 11.74C1074.2 12.0333 1074.3 12.3067 1074.5 12.56C1074.7 12.8 1075.08 12.9733 1075.62 13.08L1078.12 13.6C1079.06 13.7867 1079.71 14.0933 1080.08 14.52C1080.46 14.9467 1080.64 15.4667 1080.64 16.08C1080.64 16.7067 1080.48 17.26 1080.14 17.74C1079.81 18.2067 1079.34 18.5667 1078.74 18.82C1078.14 19.0733 1077.45 19.2 1076.66 19.2ZM1090.43 19V9H1091.73L1091.95 10.64C1092.23 10.0267 1092.63 9.56667 1093.17 9.26C1093.71 8.95333 1094.37 8.8 1095.15 8.8C1095.32 8.8 1095.51 8.81333 1095.71 8.84C1095.92 8.86667 1096.1 8.92 1096.25 9L1095.97 10.46C1095.82 10.4067 1095.66 10.3667 1095.49 10.34C1095.31 10.3133 1095.07 10.3 1094.75 10.3C1094.33 10.3 1093.91 10.42 1093.49 10.66C1093.07 10.9 1092.73 11.2667 1092.45 11.76C1092.17 12.24 1092.03 12.8533 1092.03 13.6V19H1090.43ZM1102.46 19.2C1101.51 19.2 1100.66 18.9933 1099.92 18.58C1099.18 18.1667 1098.61 17.5733 1098.2 16.8C1097.78 16.0133 1097.58 15.08 1097.58 14C1097.58 12.92 1097.78 11.9933 1098.2 11.22C1098.61 10.4333 1099.18 9.83333 1099.9 9.42C1100.62 9.00667 1101.44 8.8 1102.36 8.8C1103.29 8.8 1104.08 9 1104.74 9.4C1105.4 9.8 1105.91 10.3467 1106.26 11.04C1106.6 11.72 1106.78 12.4867 1106.78 13.34C1106.78 13.5667 1106.77 13.7733 1106.76 13.96C1106.74 14.1467 1106.72 14.3133 1106.7 14.46H1098.62V13.04H1106L1105.18 13.2C1105.18 12.24 1104.91 11.5 1104.38 10.98C1103.86 10.46 1103.17 10.2 1102.32 10.2C1101.66 10.2 1101.1 10.3533 1100.62 10.66C1100.15 10.9533 1099.78 11.3867 1099.52 11.96C1099.26 12.52 1099.14 13.2 1099.14 14C1099.14 14.7867 1099.27 15.4667 1099.54 16.04C1099.8 16.6133 1100.18 17.0533 1100.66 17.36C1101.15 17.6533 1101.74 17.8 1102.42 17.8C1103.15 17.8 1103.74 17.66 1104.2 17.38C1104.66 17.1 1105.04 16.72 1105.32 16.24L1106.58 16.98C1106.32 17.4333 1106 17.8267 1105.6 18.16C1105.21 18.4933 1104.75 18.7533 1104.22 18.94C1103.7 19.1133 1103.11 19.2 1102.46 19.2ZM1113.42 19.2C1112.45 19.2 1111.55 18.9933 1110.72 18.58C1109.91 18.1667 1109.28 17.58 1108.84 16.82L1110.2 15.84C1110.49 16.4533 1110.92 16.9333 1111.48 17.28C1112.05 17.6267 1112.74 17.8 1113.54 17.8C1114.25 17.8 1114.8 17.6667 1115.2 17.4C1115.6 17.12 1115.8 16.76 1115.8 16.32C1115.8 16.04 1115.71 15.7867 1115.52 15.56C1115.35 15.32 1115.01 15.1467 1114.5 15.04L1112.1 14.54C1111.13 14.34 1110.43 14.0067 1110 13.54C1109.59 13.0733 1109.38 12.4933 1109.38 11.8C1109.38 11.2533 1109.53 10.7533 1109.84 10.3C1110.16 9.84667 1110.61 9.48667 1111.18 9.22C1111.77 8.94 1112.45 8.8 1113.24 8.8C1114.23 8.8 1115.06 8.99333 1115.74 9.38C1116.42 9.76667 1116.93 10.3133 1117.26 11.02L1115.92 11.9C1115.69 11.3133 1115.33 10.8867 1114.82 10.62C1114.31 10.34 1113.79 10.2 1113.24 10.2C1112.76 10.2 1112.35 10.2667 1112 10.4C1111.67 10.5333 1111.41 10.72 1111.22 10.96C1111.05 11.1867 1110.96 11.4467 1110.96 11.74C1110.96 12.0333 1111.06 12.3067 1111.26 12.56C1111.46 12.8 1111.83 12.9733 1112.38 13.08L1114.88 13.6C1115.81 13.7867 1116.47 14.0933 1116.84 14.52C1117.21 14.9467 1117.4 15.4667 1117.4 16.08C1117.4 16.7067 1117.23 17.26 1116.9 17.74C1116.57 18.2067 1116.1 18.5667 1115.5 18.82C1114.9 19.0733 1114.21 19.2 1113.42 19.2ZM1124.55 19.2C1123.6 19.2 1122.75 18.9933 1122.01 18.58C1121.27 18.1667 1120.7 17.5733 1120.29 16.8C1119.87 16.0133 1119.67 15.08 1119.67 14C1119.67 12.92 1119.87 11.9933 1120.29 11.22C1120.7 10.4333 1121.27 9.83333 1121.99 9.42C1122.71 9.00667 1123.53 8.8 1124.45 8.8C1125.38 8.8 1126.17 9 1126.83 9.4C1127.49 9.8 1128 10.3467 1128.35 11.04C1128.69 11.72 1128.87 12.4867 1128.87 13.34C1128.87 13.5667 1128.86 13.7733 1128.85 13.96C1128.83 14.1467 1128.81 14.3133 1128.79 14.46H1120.71V13.04H1128.09L1127.27 13.2C1127.27 12.24 1127 11.5 1126.47 10.98C1125.95 10.46 1125.26 10.2 1124.41 10.2C1123.75 10.2 1123.19 10.3533 1122.71 10.66C1122.24 10.9533 1121.87 11.3867 1121.61 11.96C1121.35 12.52 1121.23 13.2 1121.23 14C1121.23 14.7867 1121.36 15.4667 1121.63 16.04C1121.89 16.6133 1122.27 17.0533 1122.75 17.36C1123.24 17.6533 1123.83 17.8 1124.51 17.8C1125.24 17.8 1125.83 17.66 1126.29 17.38C1126.75 17.1 1127.13 16.72 1127.41 16.24L1128.67 16.98C1128.41 17.4333 1128.09 17.8267 1127.69 18.16C1127.3 18.4933 1126.84 18.7533 1126.31 18.94C1125.79 19.1133 1125.2 19.2 1124.55 19.2ZM1131.91 19V9H1133.21L1133.43 10.64C1133.71 10.0267 1134.12 9.56667 1134.65 9.26C1135.2 8.95333 1135.86 8.8 1136.63 8.8C1136.8 8.8 1136.99 8.81333 1137.19 8.84C1137.4 8.86667 1137.58 8.92 1137.73 9L1137.45 10.46C1137.3 10.4067 1137.14 10.3667 1136.97 10.34C1136.8 10.3133 1136.55 10.3 1136.23 10.3C1135.82 10.3 1135.4 10.42 1134.97 10.66C1134.56 10.9 1134.21 11.2667 1133.93 11.76C1133.65 12.24 1133.51 12.8533 1133.51 13.6V19H1131.91ZM1146.69 9H1148.37L1144.21 19H1142.61L1138.45 9H1140.27L1143.43 17.38L1146.69 9ZM1154.65 19.2C1153.7 19.2 1152.85 18.9933 1152.11 18.58C1151.37 18.1667 1150.8 17.5733 1150.39 16.8C1149.97 16.0133 1149.77 15.08 1149.77 14C1149.77 12.92 1149.97 11.9933 1150.39 11.22C1150.8 10.4333 1151.37 9.83333 1152.09 9.42C1152.81 9.00667 1153.63 8.8 1154.55 8.8C1155.48 8.8 1156.27 9 1156.93 9.4C1157.59 9.8 1158.1 10.3467 1158.45 11.04C1158.79 11.72 1158.97 12.4867 1158.97 13.34C1158.97 13.5667 1158.96 13.7733 1158.95 13.96C1158.93 14.1467 1158.91 14.3133 1158.89 14.46H1150.81V13.04H1158.19L1157.37 13.2C1157.37 12.24 1157.1 11.5 1156.57 10.98C1156.05 10.46 1155.36 10.2 1154.51 10.2C1153.85 10.2 1153.29 10.3533 1152.81 10.66C1152.34 10.9533 1151.97 11.3867 1151.71 11.96C1151.45 12.52 1151.33 13.2 1151.33 14C1151.33 14.7867 1151.46 15.4667 1151.73 16.04C1151.99 16.6133 1152.37 17.0533 1152.85 17.36C1153.34 17.6533 1153.93 17.8 1154.61 17.8C1155.34 17.8 1155.93 17.66 1156.39 17.38C1156.85 17.1 1157.23 16.72 1157.51 16.24L1158.77 16.98C1158.51 17.4333 1158.19 17.8267 1157.79 18.16C1157.4 18.4933 1156.94 18.7533 1156.41 18.94C1155.89 19.1133 1155.3 19.2 1154.65 19.2ZM1165.91 19.2C1165.08 19.2 1164.32 18.9933 1163.63 18.58C1162.94 18.1667 1162.38 17.5733 1161.97 16.8C1161.56 16.0133 1161.35 15.08 1161.35 14C1161.35 12.8933 1161.57 11.9533 1162.01 11.18C1162.45 10.4067 1163.03 9.82 1163.75 9.42C1164.47 9.00667 1165.24 8.8 1166.07 8.8C1166.9 8.8 1167.61 9.01333 1168.21 9.44C1168.82 9.86667 1169.23 10.4333 1169.43 11.14L1169.23 11.28V4.4H1170.83V19H1169.43L1169.29 16.58L1169.51 16.46C1169.42 17.0467 1169.19 17.5467 1168.83 17.96C1168.48 18.36 1168.05 18.6667 1167.53 18.88C1167.02 19.0933 1166.48 19.2 1165.91 19.2ZM1166.07 17.8C1166.71 17.8 1167.26 17.64 1167.73 17.32C1168.21 17 1168.58 16.5467 1168.83 15.96C1169.1 15.36 1169.23 14.66 1169.23 13.86C1169.23 13.1 1169.1 12.4467 1168.83 11.9C1168.58 11.3533 1168.22 10.9333 1167.75 10.64C1167.3 10.3467 1166.76 10.2 1166.15 10.2C1165.14 10.2 1164.35 10.5467 1163.79 11.24C1163.23 11.9333 1162.95 12.8533 1162.95 14C1162.95 15.1467 1163.22 16.0667 1163.77 16.76C1164.32 17.4533 1165.08 17.8 1166.07 17.8ZM1175.35 16.6C1175.73 16.6 1176.05 16.72 1176.29 16.96C1176.53 17.2 1176.65 17.5133 1176.65 17.9C1176.65 18.2867 1176.53 18.6 1176.29 18.84C1176.05 19.08 1175.73 19.2 1175.35 19.2C1174.96 19.2 1174.65 19.08 1174.41 18.84C1174.17 18.6 1174.05 18.2867 1174.05 17.9C1174.05 17.5133 1174.17 17.2 1174.41 16.96C1174.65 16.72 1174.96 16.6 1175.35 16.6Z" fill="white"/>
</svg>
